
<svg width="99px" height="96px" viewBox="0 0 99 96" version="1.1" xmlns="http://www.w3.org/2000/svg" xmlns:xlink="http://www.w3.org/1999/xlink">
    <g id="Page-1" stroke="none" stroke-width="1" fill="none" fill-rule="evenodd">
        <g id="4252" transform="translate(-59.000000, -65.000000)">
            <path d="M107.371,160.64 C99.256,160.64 92.841,153.756 93.404,145.665 C93.713,141.311 93.223,148.303 96.326,103.949 L118.407,103.949 C121.511,148.306 121.02,141.313 121.329,145.665 C121.893,153.756 115.485,160.64 107.371,160.64" id="Fill-3" fill="#C1CAEA"></path>
            <path d="M156.175,105.863 C161.949,88.682 138.537,65.122 108.059,65.122 C77.567,65.122 54.17,88.69 59.942,105.863 L156.175,105.863" id="Fill-4" fill="#A8421A"></path>
            <path d="M107.371,160.64 C99.256,160.64 92.841,153.756 93.404,145.665 L93.626,142.529 L121.106,142.529 L121.329,145.665 C121.893,153.756 115.485,160.64 107.371,160.64" id="Fill-5" fill="#BCA89B"></path>
            <path d="M139.99,85.834 C138.716,88.545 133.175,88.625 127.614,86.012 C122.053,83.399 118.577,79.082 119.851,76.371 C121.125,73.66 126.666,73.58 132.227,76.192 C137.788,78.806 141.264,83.122 139.99,85.834" id="Fill-6" fill="#E2886D"></path>
        </g>
    </g>
</svg>